<?xml version="1.0" encoding="UTF-8"?>
<svg width="13.125px" height="15px" viewBox="0 0 13.125 15" version="1.1" xmlns="http://www.w3.org/2000/svg" xmlns:xlink="http://www.w3.org/1999/xlink">
    <title>7F2D7FF1-06ED-4E29-A2A3-18776E406A56</title>
    <defs>
        <path d="M11.71875,6.5625 L11.015625,6.5625 L11.015625,4.453125 C11.015625,1.99804688 9.01757812,0 6.5625,0 C4.10742188,0 2.109375,1.99804688 2.109375,4.453125 L2.109375,6.5625 L1.40625,6.5625 C0.629882812,6.5625 0,7.19238281 0,7.96875 L0,13.59375 C0,14.3701172 0.629882812,15 1.40625,15 L11.71875,15 C12.4951172,15 13.125,14.3701172 13.125,13.59375 L13.125,7.96875 C13.125,7.19238281 12.4951172,6.5625 11.71875,6.5625 Z M8.671875,6.5625 L4.453125,6.5625 L4.453125,4.453125 C4.453125,3.29003906 5.39941406,2.34375 6.5625,2.34375 C7.72558594,2.34375 8.671875,3.29003906 8.671875,4.453125 L8.671875,6.5625 Z" id="path-1"></path>
    </defs>
    <g id="Page-2" stroke="none" stroke-width="1" fill="none" fill-rule="evenodd">
        <g id="Site-1_Desktop/Blog" transform="translate(-58.937500, -885.000000)">
            <g id="Site-1_Desktop/Home" transform="translate(2.000000, 1.000000)">
                <g id="Padding-Group-9" transform="translate(0.000000, 122.000000)">
                    <g id="Stacked-Group" transform="translate(39.000000, 40.000000)">
                        <g id="Group" transform="translate(1.000000, 710.000000)">
                            <g id="Padding-Group-2" transform="translate(8.000000, 8.000000)">
                                <g id="Stacked-Group" transform="translate(8.000000, 4.000000)">
                                    <g id="Solid/lock" transform="translate(0.937500, 0.000000)">
                                        <mask id="mask-2" fill="white">
                                            <use xlink:href="#path-1"></use>
                                        </mask>
                                        <g id="Mask"></g>
                                        <g id="🎨-color" mask="url(#mask-2)" fill="#3F9072">
                                            <g transform="translate(-0.937500, 0.000000)" id="Viridan">
                                                <rect x="0" y="0" width="15" height="15"></rect>
                                            </g>
                                        </g>
                                    </g>
                                </g>
                            </g>
                        </g>
                    </g>
                </g>
            </g>
        </g>
    </g>
</svg>