<?xml version="1.0" encoding="UTF-8"?>
<svg width="19.9599109px" height="19.9554566px" viewBox="0 0 19.9599109 19.9554566" version="1.1" xmlns="http://www.w3.org/2000/svg" xmlns:xlink="http://www.w3.org/1999/xlink">
    <title>8B9AE7DD-61C1-4C69-A86E-9CF94B40021F</title>
    <defs>
        <path d="M4.46770601,19.9554566 L0.329621381,19.9554566 L0.329621381,6.6325167 L4.46770601,6.6325167 L4.46770601,19.9554566 Z M2.39643653,4.81514477 C1.07349666,4.81514477 -1.77635684e-15,3.71937639 -1.77635684e-15,2.39643653 C-1.77635684e-15,1.07349666 1.07349666,-1.77635684e-15 2.39643653,-1.77635684e-15 C3.71937639,-1.77635684e-15 4.79287305,1.07349666 4.79287305,2.39643653 C4.79287305,3.71937639 3.71937639,4.81514477 2.39643653,4.81514477 Z M19.9554566,19.9554566 L15.8262806,19.9554566 L15.8262806,13.4699332 C15.8262806,11.9242762 15.7951002,9.94209354 13.674833,9.94209354 C11.5233853,9.94209354 11.1937639,11.6213808 11.1937639,13.3585746 L11.1937639,19.9554566 L7.06013363,19.9554566 L7.06013363,6.6325167 L11.0289532,6.6325167 L11.0289532,8.44988864 L11.0868597,8.44988864 C11.6391982,7.40311804 12.9888641,6.29844098 15.0022272,6.29844098 C19.1893096,6.29844098 19.9599109,9.05567929 19.9599109,12.636971 L19.9599109,19.9554566 L19.9554566,19.9554566 Z" id="path-1"></path>
    </defs>
    <g id="Logos" stroke="none" stroke-width="1" fill="none" fill-rule="evenodd">
        <g id="Downloadable-Assets" transform="translate(-1335.000000, -362.022272)">
            <g id="Social_-LinkedIn" transform="translate(1323.000000, 350.000000)">
                <g id="Brands/linkedin-in" transform="translate(12.000000, 12.022272)">
                    <mask id="mask-2" fill="white">
                        <use xlink:href="#path-1"></use>
                    </mask>
                    <g id="Mask"></g>
                    <g id="🎨-color" mask="url(#mask-2)" fill="#205E3B">
                        <g transform="translate(-0.000000, -0.022272)" id="Black">
                            <rect x="0" y="0" width="20" height="20"></rect>
                        </g>
                    </g>
                </g>
            </g>
        </g>
    </g>
</svg>