<?xml version="1.0" encoding="UTF-8"?>
<svg width="248px" height="192px" viewBox="0 0 248 192" version="1.1" xmlns="http://www.w3.org/2000/svg" xmlns:xlink="http://www.w3.org/1999/xlink">
    <title>E06B9DC6-9757-468B-8818-2AB78B80B97E</title>
    <defs>
        <rect id="path-1" x="0" y="0" width="248" height="192"></rect>
    </defs>
    <g id="Page-2" stroke="none" stroke-width="1" fill="none" fill-rule="evenodd">
        <g id="Search-Results" transform="translate(-286.000000, -1496.000000)">
            <g id="Padding-Group-9" transform="translate(1.000000, 123.000000)">
                <g id="Stacked-Group" transform="translate(273.000000, 56.000000)">
                    <g transform="translate(0.000000, 112.000000)" id="Rectangle-2">
                        <g transform="translate(12.000000, 1205.000000)">
                            <mask id="mask-2" fill="white">
                                <use xlink:href="#path-1"></use>
                            </mask>
                            <use id="Rectangle" fill="#F3FAF8" xlink:href="#path-1"></use>
                            <g id="Group" mask="url(#mask-2)">
                                <g transform="translate(16.000000, 5.000000)">
                                    <g transform="translate(0.000000, 60.484305)">
                                        <polygon id="Path" fill="#FFFFFF" fill-rule="nonzero" points="46.0001675 25.7040359 0 0 30.5160372 52.1434978"></polygon>
                                        <polygon id="Path" fill="#FFFFFF" fill-rule="nonzero" points="46.0001675 25.7040359 0 0 30.5160372 52.1434978"></polygon>
                                    </g>
                                    <g transform="translate(2.550540, 56.645740)">
                                        <polygon id="Path" fill="#FFFFFF" fill-rule="nonzero" points="45.7650113 25.5784753 0 0 60.7607403 0"></polygon>
                                        <polygon id="Path" fill="#FFFFFF" fill-rule="nonzero" points="0 0 45.7650113 25.5784753 60.7607403 0"></polygon>
                                        <polygon id="Path" fill="#FFFFFF" fill-rule="nonzero" points="0 0 45.7650113 25.5784753 60.7607403 0"></polygon>
                                    </g>
                                    <g transform="translate(61.502387, 90.493274)">
                                        <polygon id="Path" fill="#FFFFFF" fill-rule="nonzero" points="0 0 93.5198057 0 46.5790135 26.044843"></polygon>
                                        <polygon id="Path" fill="#FFFFFF" fill-rule="nonzero" points="0 0 46.5609245 26.0269058 93.5017168 0"></polygon>
                                    </g>
                                    <g transform="translate(57.305753, 93.434978)">
                                        <polygon id="Path" fill="#FFFFFF" fill-rule="nonzero" points="48.4240851 82.7085202 0 0 48.4240851 27.0672646"></polygon>
                                        <polygon id="Path" fill="#FFFFFF" fill-rule="nonzero" points="48.4240851 82.7085202 48.4240851 27.0672646 0 0"></polygon>
                                        <polygon id="Path" fill="#FFFFFF" fill-rule="nonzero" points="48.4240851 82.7085202 48.4240851 27.0672646 0 0"></polygon>
                                        <polygon id="Path" fill="#FFFFFF" fill-rule="nonzero" points="48.4240851 82.7085202 48.4240851 27.0672646 0 0"></polygon>
                                    </g>
                                    <g transform="translate(110.360606, 93.704036)">
                                        <polygon id="Path" fill="#FFFFFF" fill-rule="nonzero" points="0 26.7982063 48.5145298 0 0 82.4573991"></polygon>
                                        <polygon id="Path" fill="#FFFFFF" fill-rule="nonzero" points="0 26.7982063 0 82.4573991 48.5145298 0"></polygon>
                                    </g>
                                    <g transform="translate(153.448455, 56.645740)">
                                        <polygon id="Path" fill="#FFFFFF" fill-rule="nonzero" points="0 0 60.0371828 0 14.9595511 25.3991031 0.0180889373 0"></polygon>
                                        <polygon id="Path" fill="#FFFFFF" fill-rule="nonzero" points="0 0 14.9414622 25.4170404 60.0371828 0"></polygon>
                                    </g>
                                    <g transform="translate(170.723390, 60.520179)">
                                        <polygon id="Path" fill="#FFFFFF" fill-rule="nonzero" points="1.02823704e-13 25.5067265 45.27661 0 15.3394188 51.5695067 0 25.5067265"></polygon>
                                        <polygon id="Path" fill="#FFFFFF" fill-rule="nonzero" points="45.27661 0 0 25.5067265 15.3394188 51.5695067"></polygon>
                                    </g>
                                    <g transform="translate(0.578846, 95.031390)">
                                        <polygon id="Path" fill="#FFFFFF" fill-rule="nonzero" points="0 88.161435 103.577255 88.161435 51.6439159 0"></polygon>
                                        <polygon id="Path" fill="#FFFFFF" fill-rule="nonzero" points="0 88.161435 103.577255 88.161435 51.6439159 0"></polygon>
                                        <polygon id="Path" fill="#FFFFFF" fill-rule="nonzero" points="0 88.161435 103.577255 88.161435 51.6439159 0"></polygon>
                                    </g>
                                    <g transform="translate(111.934344, 95.192825)">
                                        <polygon id="Path" fill="#FFFFFF" fill-rule="nonzero" points="51.9514279 0 103.721966 88 0 88"></polygon>
                                        <polygon id="Path" fill="#FFFFFF" fill-rule="nonzero" points="51.9514279 0 0 88 103.721966 88"></polygon>
                                        <polygon id="Path" fill="#FFFFFF" fill-rule="nonzero" points="51.9514279 0 0 88 103.721966 88"></polygon>
                                        <polygon id="Path" fill="#FFFFFF" fill-rule="nonzero" points="51.9514279 0 0 88 103.721966 88"></polygon>
                                    </g>
                                    <g transform="translate(62.352567, 0.000000)">
                                        <polygon id="Path" fill="#FFFFFF" fill-rule="nonzero" points="45.7107445 0 91.2586886 77.7219731 0 77.7219731 45.6926556 0"></polygon>
                                        <polygon id="Path" fill="#FFFFFF" fill-rule="nonzero" points="45.7107445 0 0.0180889373 77.7219731 91.2586886 77.7219731"></polygon>
                                        <polygon id="Path" fill="#FFFFFF" fill-rule="nonzero" points="45.7107445 0 0.0180889373 77.7219731 91.2586886 77.7219731"></polygon>
                                        <polygon id="Path" fill="#FFFFFF" fill-rule="nonzero" points="45.7107445 0 0.0180889373 77.7219731 91.2586886 77.7219731"></polygon>
                                    </g>
                                </g>
                            </g>
                        </g>
                    </g>
                </g>
            </g>
        </g>
    </g>
</svg>