<?xml version="1.0" encoding="UTF-8"?>
<svg width="118px" height="107px" viewBox="0 0 118 107" version="1.1" xmlns="http://www.w3.org/2000/svg" xmlns:xlink="http://www.w3.org/1999/xlink">
    <title>21C65E92-416A-49F3-BA07-B7BA9B5A4044</title>
    <g id="Page-2" stroke="none" stroke-width="1" fill="none" fill-rule="evenodd">
        <g id="Site-1_Desktop/Home-V2" transform="translate(-195.000000, -2956.000000)" fill="#205E3B" fill-rule="nonzero">
            <g id="Site-1_Desktop/Home" transform="translate(0.000000, 1.000000)">
                <g id="Group-2" transform="translate(1.000000, 2820.000000)">
                    <g id="“" transform="translate(194.000000, 135.000000)">
                        <path d="M0,68.5749957 C0,55.8841685 3.22709191,44.2509104 9.68127574,33.6752211 C16.1354596,23.0995318 24.2912009,12.8763655 34.1484999,3.00572221 C36.4954758,0.890584359 39.0184749,-0.108230738 41.7174973,0.00927692041 C44.4165196,0.126784579 46.8221699,1.24310733 48.9344483,3.35824519 L52.1028658,6.88347494 C54.2151441,8.9986128 55.0952601,11.5837813 54.7432137,14.6389804 C54.3911673,17.6941795 53.159005,20.0443327 51.0467266,21.6894399 L51.0467266,21.3369169 L46.8221699,25.5671926 C42.5976132,29.562453 38.431731,34.2040055 34.3245231,39.4918502 C30.2173152,44.7796948 28.5157576,50.0087856 29.2198504,55.1791226 C29.2198504,55.6491532 29.454548,56.1779377 29.9239432,56.765476 C30.3933384,57.3530143 31.21478,57.5292758 32.3882679,57.2942604 C35.9087318,57.0592451 39.1944981,57.5880296 42.2455669,58.8806138 C45.2966356,60.1731981 47.9369835,61.935813 50.1666106,64.1684585 C52.3962378,66.401104 54.1564697,69.0450263 55.4473065,72.1002254 C56.7381433,75.1554245 57.3835616,78.445639 57.3835616,81.9708687 C57.3835616,88.7863129 54.9192369,94.6616959 49.9905874,99.5970175 C45.061938,104.532339 38.7251029,107 30.9800824,107 C27.694316,107 24.2325265,106.412462 20.5947138,105.237385 C16.9569011,104.062309 13.6124604,101.947171 10.5613917,98.8919716 C7.510323,95.8367724 4.98732386,91.9002659 2.99239432,87.0824519 C0.997464773,82.2646379 0,76.0954858 0,68.5749957 Z M60.6164384,68.5749957 C60.6164384,55.8841685 63.8435303,44.2509104 70.2977141,33.6752211 C76.7518979,23.0995318 84.9076393,12.8763655 94.7649382,3.00572221 C97.1119142,0.890584359 99.6349133,-0.108230738 102.333936,0.00927692041 C105.032958,0.126784579 107.438608,1.24310733 109.550887,3.35824519 L112.719304,6.88347494 C114.831582,8.9986128 115.711698,11.5837813 115.359652,14.6389804 C115.007606,17.6941795 113.775443,20.0443327 111.663165,21.6894399 L111.663165,21.3369169 L107.438608,25.5671926 C103.214052,29.562453 99.0481693,34.2040055 94.9409614,39.4918502 C90.8337535,44.7796948 89.132196,50.0087856 89.8362888,55.1791226 C89.8362888,55.6491532 90.0709864,56.1779377 90.5403815,56.765476 C91.0097767,57.3530143 91.8312183,57.5292758 93.0047063,57.2942604 C96.5251702,57.0592451 99.8109365,57.5880296 102.862005,58.8806138 C105.913074,60.1731981 108.553422,61.935813 110.783049,64.1684585 C113.012676,66.401104 114.772908,69.0450263 116.063745,72.1002254 C117.354582,75.1554245 118,78.445639 118,81.9708687 C118,88.7863129 115.535675,94.6616959 110.607026,99.5970175 C105.678376,104.532339 99.3415413,107 91.5965207,107 C88.3107544,107 84.8489649,106.412462 81.2111522,105.237385 C77.5733395,104.062309 74.2288988,101.947171 71.1778301,98.8919716 C68.1267614,95.8367724 65.6037622,91.9002659 63.6088327,87.0824519 C61.6139031,82.2646379 60.6164384,76.0954858 60.6164384,68.5749957 Z" id="Shape"></path>
                    </g>
                </g>
            </g>
        </g>
    </g>
</svg>