<?xml version="1.0" encoding="UTF-8"?>
<svg width="19.9318978px" height="14.0145985px" viewBox="0 0 19.9318978 14.0145985" version="1.1" xmlns="http://www.w3.org/2000/svg" xmlns:xlink="http://www.w3.org/1999/xlink">
    <title>AA09DEDF-6DCD-4190-998B-D1A3E28360D8</title>
    <defs>
        <path d="M19.5154015,2.19281022 C19.2861679,1.32967153 18.6107664,0.649890511 17.7532117,0.41919708 C16.1988321,1.77635684e-15 9.96594891,1.77635684e-15 9.96594891,1.77635684e-15 C9.96594891,1.77635684e-15 3.73310219,1.77635684e-15 2.17868613,0.41919708 C1.32113139,0.649927007 0.645729927,1.32967153 0.41649635,2.19281022 C-1.77635684e-15,3.75729927 -1.77635684e-15,7.02145985 -1.77635684e-15,7.02145985 C-1.77635684e-15,7.02145985 -1.77635684e-15,10.2856204 0.41649635,11.8501095 C0.645729927,12.7132482 1.32113139,13.364708 2.17868613,13.5954015 C3.73310219,14.0145985 9.96594891,14.0145985 9.96594891,14.0145985 C9.96594891,14.0145985 16.1987956,14.0145985 17.7532117,13.5954015 C18.6107664,13.364708 19.2861679,12.7132482 19.5154015,11.8501095 C19.9318978,10.2856204 19.9318978,7.02145985 19.9318978,7.02145985 C19.9318978,7.02145985 19.9318978,3.75729927 19.5154015,2.19281022 Z M7.92744526,9.98507299 L7.92744526,4.05784672 L13.1368978,7.02153285 L7.92744526,9.98507299 Z" id="path-1"></path>
    </defs>
    <g id="Logos" stroke="none" stroke-width="1" fill="none" fill-rule="evenodd">
        <g id="Downloadable-Assets" transform="translate(-1279.034051, -364.992701)">
            <g id="Social_-YOutube" transform="translate(1267.000000, 350.000000)">
                <g id="Brands/youtube" transform="translate(12.034051, 14.992701)">
                    <mask id="mask-2" fill="white">
                        <use xlink:href="#path-1"></use>
                    </mask>
                    <g id="Mask"></g>
                    <g id="🎨-color" mask="url(#mask-2)" fill="#205E3B">
                        <g transform="translate(-0.034051, -2.992701)" id="Black">
                            <rect x="0" y="0" width="20" height="20"></rect>
                        </g>
                    </g>
                </g>
            </g>
        </g>
    </g>
</svg>