<?xml version="1.0" encoding="UTF-8"?>
<svg width="80px" height="90.1641232px" viewBox="0 0 80 90.1641232" version="1.1" xmlns="http://www.w3.org/2000/svg" xmlns:xlink="http://www.w3.org/1999/xlink">
    <title>AC08016F-C890-4068-B27A-DA8F3605ADB3</title>
    <g id="Logos" stroke="none" stroke-width="1" fill="none" fill-rule="evenodd">
        <g id="Downloadable-Assets" transform="translate(-918.000000, -350.000000)" fill-rule="nonzero">
            <g id="AP-Favicon" transform="translate(918.000000, 350.000000)">
                <g id="Group-16" fill="#FFFFFF">
                    <polygon id="Path" points="40.0634417 0.164123171 0 67.1641232 80 67.1641232"></polygon>
                    <polygon id="Path" transform="translate(40.000000, 33.664123) scale(-1, 1) translate(-40.000000, -33.664123) " points="40.0634417 0.164123171 0 67.1641232 80 67.1641232"></polygon>
                    <path d="M40,0 L53.2,22.164 L80,22.1641232 L66.683,44.803 L80,67.1641232 L53.529,67.164 L40.031,90.11 L26.512,67.164 L0,67.1641232 L13.328,44.786 L0,22.1641232 L26.8,22.164 L40,0 Z" id="Combined-Shape"></path>
                </g>
                <g id="Group-15" transform="translate(5.000000, 5.164123)">
                    <g id="Group" transform="translate(0.000000, 18.572374)" fill="#99CFBC">
                        <polygon id="Path" points="14.9074617 9.68609865 0 1.25854591 9.88945649 18.3547747"></polygon>
                        <path d="M51.4873126,12.150261 L35.7650113,39.1854738 L35.7650113,20.9365581 L51.4873126,12.150261 Z M18.5713089,12.0620451 L34.2642995,20.9365581 L34.2642995,39.1795927 L18.5713089,12.0620451 Z M50.2328113,11.097552 L35.0205175,19.6309638 L19.931329,11.097552 L50.2328113,11.097552 Z M0,1.25854591 L14.9074617,9.68609865 L9.88945649,18.3547747 L0,1.25854591 Z M70,1.27030802 L60.2981325,18.178343 L55.3270245,9.63316915 L70,1.27030802 Z M20.5175446,1.13686838e-13 L15.6578176,8.38638536 L0.826563939,1.13686838e-13 L20.5175446,1.13686838e-13 Z M69.1851604,0 L54.5708065,8.33345586 L49.7286659,0 L69.1851604,0 Z M35.7650113,61.4099831 L46.3286157,42.9905168 L35.7650113,42.9905168 L35.7650113,61.4099831 L35.7650113,61.4099831 Z M34.2642995,61.4276263 L34.2642995,42.9905168 L23.6010384,42.9905168 L34.2642995,61.4276263 L34.2642995,61.4276263 Z" id="Combined-Shape"></path>
                    </g>
                    <path d="M16.7925057,31.0950608 L33.4904797,59.9422151 L0.187588979,59.9422151 L16.7925057,31.0950608 Z M52.6951855,31.1478836 L35.9913954,59.9422151 L69.3408148,59.9422151 L52.6951855,31.1478836 L52.6951855,31.1478836 Z M34.7467536,0 L20.0553282,25.4312756 L49.3916504,25.4312756 L34.7467536,0 L34.7467536,0 Z" id="Combined-Shape" fill="#3F9072"></path>
                </g>
            </g>
        </g>
    </g>
</svg>