<?xml version="1.0" encoding="UTF-8"?>
<svg width="77px" height="70px" viewBox="0 0 77 70" version="1.1" xmlns="http://www.w3.org/2000/svg" xmlns:xlink="http://www.w3.org/1999/xlink">
    <title>9627D926-1671-445E-8B33-7E00970C61B4</title>
    <g id="Logos" stroke="none" stroke-width="1" fill="none" fill-rule="evenodd">
        <g id="Downloadable-Assets" transform="translate(-1033.000000, -877.000000)" fill="#205E3B" fill-rule="nonzero">
            <g id="Quote" transform="translate(1033.000000, 877.000000)">
                <path d="M0,44.8621467 C0,36.5597364 2.13701431,28.9491937 6.41104294,22.0305185 C10.6850716,15.1118432 16.0858896,8.42379053 22.6134969,1.96636033 C24.1676892,0.582625282 25.8384458,-0.0708051558 27.6257669,0.00606901335 C29.4130879,0.0829431825 31.006135,0.813247789 32.404908,2.19698283 L34.5030675,4.50320791 C35.9018405,5.88694295 36.4846626,7.57817467 36.2515337,9.57690307 C36.0184049,11.5756315 35.202454,13.1131148 33.803681,14.1893532 L33.803681,13.9587307 L31.006135,16.7262008 C28.208589,19.3399225 25.4498978,22.3764522 22.7300613,25.8357898 C20.0102249,29.2951274 18.8834356,32.716028 19.3496933,36.0984914 C19.3496933,36.4059881 19.5051125,36.7519219 19.8159509,37.1362927 C20.1267894,37.5206635 20.6707566,37.6359748 21.4478528,37.4822265 C23.7791411,37.3284781 25.9550102,37.6744119 27.9754601,38.5200277 C29.99591,39.3656436 31.7443763,40.5187561 33.2208589,41.9793654 C34.6973415,43.4399746 35.8629857,45.1696434 36.7177914,47.1683718 C37.5725971,49.1671002 38,51.3195769 38,53.625802 C38,58.0845038 36.3680982,61.9282122 33.1042945,65.1569273 C29.8404908,68.3856424 25.6441718,70 20.5153374,70 C18.3394683,70 16.0470348,69.6156292 13.6380368,68.8468875 C11.2290389,68.0781458 9.01431493,66.6944107 6.99386503,64.6956823 C4.97341513,62.6969539 3.30265849,60.1216693 1.98159509,56.9698283 C0.660531697,53.8179874 0,49.7820935 0,44.8621467 Z M39,44.8621467 C39,36.5597364 41.1370143,28.9491937 45.4110429,22.0305185 C49.6850716,15.1118432 55.0858896,8.42379053 61.6134969,1.96636033 C63.1676892,0.582625282 64.8384458,-0.0708051558 66.6257669,0.00606901335 C68.4130879,0.0829431825 70.006135,0.813247789 71.404908,2.19698283 L73.5030675,4.50320791 C74.9018405,5.88694295 75.4846626,7.57817467 75.2515337,9.57690307 C75.0184049,11.5756315 74.202454,13.1131148 72.803681,14.1893532 L72.803681,13.9587307 L70.006135,16.7262008 C67.208589,19.3399225 64.4498978,22.3764522 61.7300613,25.8357898 C59.0102249,29.2951274 57.8834356,32.716028 58.3496933,36.0984914 C58.3496933,36.4059881 58.5051125,36.7519219 58.8159509,37.1362927 C59.1267894,37.5206635 59.6707566,37.6359748 60.4478528,37.4822265 C62.7791411,37.3284781 64.9550102,37.6744119 66.9754601,38.5200277 C68.99591,39.3656436 70.7443763,40.5187561 72.2208589,41.9793654 C73.6973415,43.4399746 74.8629857,45.1696434 75.7177914,47.1683718 C76.5725971,49.1671002 77,51.3195769 77,53.625802 C77,58.0845038 75.3680982,61.9282122 72.1042945,65.1569273 C68.8404908,68.3856424 64.6441718,70 59.5153374,70 C57.3394683,70 55.0470348,69.6156292 52.6380368,68.8468875 C50.2290389,68.0781458 48.0143149,66.6944107 45.993865,64.6956823 C43.9734151,62.6969539 42.3026585,60.1216693 40.9815951,56.9698283 C39.6605317,53.8179874 39,49.7820935 39,44.8621467 Z" id="Shape"></path>
            </g>
        </g>
    </g>
</svg>