<?xml version="1.0" encoding="UTF-8"?>
<svg width="44px" height="243px" viewBox="0 0 44 243" version="1.1" xmlns="http://www.w3.org/2000/svg" xmlns:xlink="http://www.w3.org/1999/xlink">
    <title>9FF44F2A-E97F-4CB2-A4AC-B1F242C276E8</title>
    <defs>
        <path d="M2.99609375,20 L2.99609375,11.0546875 L0,11.0546875 L0,7.5 L2.99609375,7.5 L2.99609375,4.69921875 C2.99609375,1.65625 4.85546875,0 7.5703125,0 C8.87109375,0 9.98828125,0.09765625 10.3125,0.140625 L10.3125,3.3203125 L8.4296875,3.3203125 C6.953125,3.3203125 6.66796875,4.0234375 6.66796875,5.05078125 L6.66796875,7.5 L10,7.5 L9.54296875,11.0546875 L6.66796875,11.0546875 L6.66796875,20" id="path-1"></path>
        <path d="M0.0487619657,1.77635684e-15 L7.77053898,10.3247467 L0,18.719199 L1.74883591,18.719199 L8.55192949,11.3697316 L14.0486421,18.719199 L20,18.719199 L11.8437619,7.81370531 L19.0765203,1.77635684e-15 L17.3276844,1.77635684e-15 L11.0623714,6.7687204 L6.00011991,1.77635684e-15 L0.0487619657,1.77635684e-15 L0.0487619657,1.77635684e-15 Z M2.62055597,1.28819521 L5.35462339,1.28819521 L17.4278063,17.430804 L14.6937389,17.430804 L2.62055597,1.28819521 Z" id="path-3"></path>
        <path d="M12.7334308,7.22773879 C15.0627485,9.55947369 15.0307797,13.2978363 12.7474659,15.5938207 C12.7431774,15.598499 12.7381092,15.6035673 12.7334308,15.6082456 L10.1135478,18.2281287 C7.80282651,20.5388499 4.04341131,20.538538 1.73304094,18.2281287 C-0.577680312,15.9177973 -0.577680312,12.1579532 1.73304094,9.84762183 L3.17966862,8.40099415 C3.56329435,8.01736842 4.22395712,8.27233918 4.24376218,8.81448343 C4.26902534,9.50539961 4.39292398,10.1995517 4.62153996,10.869883 C4.69896686,11.0968616 4.64364522,11.3479337 4.47405458,11.5175244 L3.96384016,12.0277388 C2.87120858,13.1203704 2.83693957,14.8994737 3.91881092,16.0027875 C5.01136452,17.1169786 6.807154,17.1236062 7.90808967,16.0226706 L10.5279727,13.4031774 C11.627037,12.3041131 11.6224366,10.5276608 10.5279727,9.43319688 C10.3836842,9.28918129 10.2383431,9.17729045 10.1248148,9.09912281 C9.96196097,8.98729111 9.86154146,8.80507024 9.85397661,8.60766082 C9.83853801,8.19569201 9.98450292,7.77116959 10.310039,7.44563353 L11.1308577,6.62477583 C11.3461014,6.40953217 11.6837622,6.38309942 11.9333528,6.55729045 C12.2191885,6.75688091 12.486913,6.98122835 12.7334308,7.22773879 Z M18.2279727,1.73292398 C15.9176023,-0.577485378 12.1581871,-0.577797269 9.84746589,1.73292398 L7.22758285,4.35280702 C7.22290448,4.35748538 7.21783626,4.36255361 7.21354776,4.36723197 C4.9302729,6.66321638 4.89826511,10.4015789 7.22758285,12.7333138 C7.47408606,12.9798131 7.74179779,13.2041478 8.02762183,13.4037232 C8.27721248,13.5779142 8.61491228,13.5514425 8.83011696,13.3362378 L9.65093567,12.5153801 C9.97647173,12.1898441 10.1224366,11.7653216 10.1069981,11.3533528 C10.0994332,11.1559434 9.99901369,10.9737225 9.83615984,10.8618908 C9.72263158,10.7837232 9.57729045,10.6718324 9.43300195,10.5278168 C8.33853801,9.43335283 8.33393762,7.65690059 9.43300195,6.55783626 L12.052885,3.93834308 C13.1538207,2.83740741 14.9495712,2.84403509 16.0421637,3.95822612 C17.1240351,5.06153996 17.0898051,6.84064328 15.9971345,7.93327486 L15.4869201,8.44348928 C15.3173294,8.61307992 15.2620078,8.86415205 15.3394347,9.09113061 C15.5680507,9.76146199 15.6919493,10.455614 15.7172125,11.1465302 C15.7370565,11.6886745 16.3976803,11.9436452 16.781306,11.5600195 L18.2279337,10.1133918 C20.538694,7.80309942 20.538694,4.04325536 18.2279727,1.73292398 L18.2279727,1.73292398 Z" id="path-5"></path>
        <path d="M19.6210938,4.953125 C19.7734375,4.83203125 20,4.9453125 20,5.13671875 L20,13.125 C20,14.1601563 19.1601562,15 18.125,15 L1.875,15 C0.83984375,15 0,14.1601563 0,13.125 L0,5.140625 C0,4.9453125 0.22265625,4.8359375 0.37890625,4.95703125 C1.25390625,5.63671875 2.4140625,6.5 6.3984375,9.39453125 C7.22265625,9.99609375 8.61328125,11.2617188 10,11.2539063 C11.3945312,11.265625 12.8125,9.97265625 13.6054688,9.39453125 C17.5898438,6.5 18.7460938,5.6328125 19.6210938,4.953125 Z M10,10 C10.90625,10.015625 12.2109375,8.859375 12.8671875,8.3828125 C18.0507812,4.62109375 18.4453125,4.29296875 19.640625,3.35546875 C19.8671875,3.1796875 20,2.90625 20,2.6171875 L20,1.875 C20,0.83984375 19.1601562,-1.77635684e-15 18.125,-1.77635684e-15 L1.875,-1.77635684e-15 C0.83984375,-1.77635684e-15 0,0.83984375 0,1.875 L0,2.6171875 C0,2.90625 0.1328125,3.17578125 0.359375,3.35546875 C1.5546875,4.2890625 1.94921875,4.62109375 7.1328125,8.3828125 C7.7890625,8.859375 9.09375,10.015625 10,10 Z" id="path-7"></path>
        <path d="M4.46770601,19.9554566 L0.329621381,19.9554566 L0.329621381,6.6325167 L4.46770601,6.6325167 L4.46770601,19.9554566 Z M2.39643653,4.81514477 C1.07349666,4.81514477 -1.77635684e-15,3.71937639 -1.77635684e-15,2.39643653 C-1.77635684e-15,1.07349666 1.07349666,-1.77635684e-15 2.39643653,-1.77635684e-15 C3.71937639,-1.77635684e-15 4.79287305,1.07349666 4.79287305,2.39643653 C4.79287305,3.71937639 3.71937639,4.81514477 2.39643653,4.81514477 Z M19.9554566,19.9554566 L15.8262806,19.9554566 L15.8262806,13.4699332 C15.8262806,11.9242762 15.7951002,9.94209354 13.674833,9.94209354 C11.5233853,9.94209354 11.1937639,11.6213808 11.1937639,13.3585746 L11.1937639,19.9554566 L7.06013363,19.9554566 L7.06013363,6.6325167 L11.0289532,6.6325167 L11.0289532,8.44988864 L11.0868597,8.44988864 C11.6391982,7.40311804 12.9888641,6.29844098 15.0022272,6.29844098 C19.1893096,6.29844098 19.9599109,9.05567929 19.9599109,12.636971 L19.9599109,19.9554566 L19.9554566,19.9554566 Z" id="path-9"></path>
    </defs>
    <g id="Logos" stroke="none" stroke-width="1" fill="none" fill-rule="evenodd">
        <g id="Downloadable-Assets" transform="translate(-1323.000000, -421.000000)">
            <g id="Share_Desktop" transform="translate(1323.000000, 421.000000)">
                <rect id="Background" stroke="#18472C" fill="#FFFFFF" x="-0.5" y="-0.5" width="45" height="244"></rect>
                <g id="Stacked-Group-4" transform="translate(0.000000, 4.000000)">
                    <text id="Share" font-family="Lato-Regular, Lato" font-size="12" font-weight="normal" line-spacing="15" fill="#535353">
                        <tspan x="6.88" y="12">Share</tspan>
                    </text>
                    <g id="Stacked-Group" transform="translate(0.000000, 19.000000)">
                        <g id="Padding-Group-2">
                            <rect id="Background" stroke="#18472C" fill="#F3FAF8" x="-0.5" y="-0.5" width="45" height="45"></rect>
                            <g id="Brands/facebook-f" transform="translate(16.843750, 12.000000)">
                                <mask id="mask-2" fill="white">
                                    <use xlink:href="#path-1"></use>
                                </mask>
                                <g id="Mask"></g>
                                <g id="🎨-color" mask="url(#mask-2)" fill="#205E3B">
                                    <g transform="translate(-4.843750, 0.000000)" id="Black">
                                        <rect x="0" y="0" width="20" height="20"></rect>
                                    </g>
                                </g>
                            </g>
                        </g>
                        <g id="Padding-Group-3" transform="translate(0.000000, 44.000000)">
                            <rect id="Background" stroke="#18472C" fill="#F3FAF8" x="-0.5" y="-0.5" width="45" height="45"></rect>
                            <g id="Brands/twitter" transform="translate(12.000000, 12.833333)">
                                <mask id="mask-4" fill="white">
                                    <use xlink:href="#path-3"></use>
                                </mask>
                                <use id="path1009" fill="#000000" fill-rule="nonzero" xlink:href="#path-3"></use>
                                <g id="🎨-color" mask="url(#mask-4)" fill="#205E3B">
                                    <g transform="translate(0.000000, -0.833333)" id="Black">
                                        <rect x="0" y="0" width="20" height="20"></rect>
                                    </g>
                                </g>
                            </g>
                        </g>
                        <g id="Padding-Group-4" transform="translate(0.000000, 176.000000)">
                            <rect id="Background" stroke="#18472C" fill="#F3FAF8" x="-0.5" y="-0.5" width="45" height="45"></rect>
                            <g id="Brands/youtube" transform="translate(12.019474, 12.038967)">
                                <mask id="mask-6" fill="white">
                                    <use xlink:href="#path-5"></use>
                                </mask>
                                <g id="Mask"></g>
                                <g id="🎨-color" mask="url(#mask-6)" fill="#205E3B">
                                    <g transform="translate(-0.019474, -0.038967)" id="Black">
                                        <rect x="0" y="0" width="20" height="20"></rect>
                                    </g>
                                </g>
                            </g>
                        </g>
                        <g id="Padding-Group-4" transform="translate(0.000000, 132.000000)">
                            <rect id="Background" stroke="#18472C" fill="#F3FAF8" x="-0.5" y="-0.5" width="45" height="45"></rect>
                            <g id="Brands/youtube" transform="translate(12.000000, 14.500000)">
                                <mask id="mask-8" fill="white">
                                    <use xlink:href="#path-7"></use>
                                </mask>
                                <g id="Mask"></g>
                                <g id="🎨-color" mask="url(#mask-8)" fill="#205E3B">
                                    <g transform="translate(0.000000, -2.500000)" id="Black">
                                        <rect x="0" y="0" width="20" height="20"></rect>
                                    </g>
                                </g>
                            </g>
                        </g>
                        <g id="Padding-Group-5" transform="translate(0.000000, 88.000000)">
                            <rect id="Background" stroke="#18472C" fill="#F3FAF8" x="-0.5" y="-0.5" width="45" height="45"></rect>
                            <g id="Brands/linkedin-in" transform="translate(12.000000, 12.022272)">
                                <mask id="mask-10" fill="white">
                                    <use xlink:href="#path-9"></use>
                                </mask>
                                <g id="Mask"></g>
                                <g id="🎨-color" mask="url(#mask-10)" fill="#205E3B">
                                    <g transform="translate(-0.000000, -0.022272)" id="Black">
                                        <rect x="0" y="0" width="20" height="20"></rect>
                                    </g>
                                </g>
                            </g>
                        </g>
                    </g>
                </g>
            </g>
        </g>
    </g>
</svg>