<?xml version="1.0" encoding="UTF-8"?>
<svg width="305px" height="264px" viewBox="0 0 305 264" version="1.1" xmlns="http://www.w3.org/2000/svg" xmlns:xlink="http://www.w3.org/1999/xlink">
    <title>B8B6C1ED-4729-42E1-A33B-D312034FFD7E</title>
    <g id="Logos" stroke="none" stroke-width="1" fill="none" fill-rule="evenodd">
        <g id="Downloadable-Assets" transform="translate(-1108.000000, -40.000000)">
            <g id="SignUp-Sections_Logo" transform="translate(1108.000000, 40.000000)">
                <rect id="Rectangle" x="0" y="0" width="305" height="264"></rect>
                <g id="Group" opacity="0.0922146752" transform="translate(5.000000, 5.000000)" fill="#FFFFFF" fill-rule="nonzero">
                    <g id="Group-5" transform="translate(0.000000, 79.000000)">
                        <g id="Group" transform="translate(0.000000, 4.000000)">
                            <polygon id="Path" points="63 35.4922601 0 0 41.7935509 72"></polygon>
                            <polygon id="Path" points="63 35.4922601 0 0 41.7935509 72"></polygon>
                        </g>
                        <g id="Group" transform="translate(3.000000, 0.000000)">
                            <polygon id="Path" points="62.5156297 35 0 0 83 0"></polygon>
                            <polygon id="Path" points="0 0 62.5156297 35 83 0"></polygon>
                            <polygon id="Path" points="0 0 62.5156297 35 83 0"></polygon>
                        </g>
                    </g>
                    <g transform="translate(85.000000, 125.000000)" id="Path">
                        <polygon points="0 0 128 0 63.7524178 36"></polygon>
                        <polygon points="0 0 63.7276596 36 127.975242 0"></polygon>
                    </g>
                    <g transform="translate(79.000000, 130.000000)" id="Path">
                        <polygon points="66 115 0 0 66 37.6350033"></polygon>
                        <polygon points="66 115 66 37.6350033 0 0.02494036"></polygon>
                        <polygon points="66 115 66 37.6350033 0 0.02494036"></polygon>
                        <polygon points="66 115 66 37.6350033 0 0.02494036"></polygon>
                    </g>
                    <g transform="translate(151.000000, 129.000000)" id="Path">
                        <polygon points="0 37.0661157 66 0.0247933884 0 114 0 37.0661157"></polygon>
                        <polygon points="0 37.0661157 0 114 66 0"></polygon>
                    </g>
                    <g transform="translate(209.000000, 79.000000)" id="Path">
                        <polygon points="0 0 82 0 20.4320578 35 0.0247062368 0"></polygon>
                        <polygon points="0 0 20.4073516 35 82 0"></polygon>
                    </g>
                    <g transform="translate(233.000000, 84.000000)" id="Path">
                        <polygon points="1.40802716e-13 35.105007 62 0 21.0051938 70.9753129 0 35.105007"></polygon>
                        <polygon points="62 0 0 35.105007 21.0051938 71"></polygon>
                    </g>
                    <g transform="translate(1.000000, 132.000000)" id="Path">
                        <polygon points="0 122 142 122 70.8016067 0"></polygon>
                        <polygon points="0 122 142 122 70.8016067 0"></polygon>
                        <polygon points="0 122 142 122 70.8016067 0"></polygon>
                    </g>
                    <g transform="translate(153.000000, 132.000000)" id="Path">
                        <polygon points="71.1238228 0 142 122 0 122"></polygon>
                        <polygon points="71.1238228 0 0 121.975132 142 121.975132"></polygon>
                        <polygon points="71.1238228 0 0 121.975132 142 121.975132"></polygon>
                        <polygon points="71.1238228 0 0 121.975132 142 121.975132"></polygon>
                    </g>
                    <g transform="translate(85.000000, 0.000000)" id="Path">
                        <polygon points="62.6114965 0 125 108 0 108 62.5867195 0"></polygon>
                        <polygon points="62.6114965 0 0.0247770069 108 125 108"></polygon>
                        <polygon points="62.6114965 0 0.0247770069 108 125 108"></polygon>
                        <polygon points="62.6114965 0 0.0247770069 108 125 108"></polygon>
                    </g>
                </g>
            </g>
        </g>
    </g>
</svg>