<?xml version="1.0" encoding="UTF-8"?>
<svg width="1440px" height="32px" viewBox="0 0 1440 32" version="1.1" xmlns="http://www.w3.org/2000/svg" xmlns:xlink="http://www.w3.org/1999/xlink">
    <title>3D167D8A-2C49-478D-9775-7077CD6AD9EC</title>
    <g id="SITE-2.0" stroke="none" stroke-width="1" fill="none" fill-rule="evenodd">
        <g id="Home" transform="translate(0.035133, -2502.000000)" fill="#DBE6F3">
            <g id="Stacked-Group" transform="translate(-0.035133, 0.000000)">
                <g id="Group-2" transform="translate(0.000000, 2502.000000)">
                    <path d="M1440,0 L1440,13.7963639 C1322.58679,25.9321213 1182.92013,32 1021,32 C778.119811,32 563.644704,14.7605445 453.470715,13.7963639 C381.926126,13.1702461 299.281949,13.0494517 205.538185,13.433981 C88.2076217,8.10167041 19.6948933,9.25970465 0,16.9080837 L0,0 L1440,0 Z" id="Rectangle" opacity="0.319700695" transform="translate(720.000000, 16.000000) scale(-1, -1) translate(-720.000000, -16.000000) "></path>
                    <path d="M1440,5.04058611 L1440,29.5512244 C1320.72571,17.7504924 1180.12849,11.8501264 1018.20837,11.8501264 C805.526064,11.8501264 721.093984,30.0970641 501.784641,31.8099013 C355.578412,32.9517928 188.316865,28.9493187 0,19.802479 L0,5.04058611 L1440,5.04058611 Z" id="Rectangle" opacity="0.447881789" transform="translate(720.000000, 18.520293) scale(1, -1) translate(-720.000000, -18.520293) "></path>
                    <path d="M1440,9.23777999 L1440,31.9826197 C1320.3778,18.1540752 1179.60664,11.239803 1017.68651,11.239803 C920.320965,11.239803 767.76358,15.9057953 560.014356,25.23778 C456.233775,29.5183063 359.573049,31.7665862 270.032179,31.9826197 C180.491308,32.1986532 90.4805821,30.4007518 0,26.5889155 L0,9.23777999 L1440,9.23777999 Z" id="Rectangle" transform="translate(720.000000, 20.618890) scale(1, -1) translate(-720.000000, -20.618890) "></path>
                </g>
            </g>
        </g>
    </g>
</svg>