<?xml version="1.0" encoding="UTF-8"?>
<svg width="19.9610088px" height="19.9610526px" viewBox="0 0 19.9610088 19.9610526" version="1.1" xmlns="http://www.w3.org/2000/svg" xmlns:xlink="http://www.w3.org/1999/xlink">
    <title>E40E60C6-FA96-4E06-BA17-518BD37BC698</title>
    <defs>
        <path d="M12.7334308,7.22773879 C15.0627485,9.55947369 15.0307797,13.2978363 12.7474659,15.5938207 C12.7431774,15.598499 12.7381092,15.6035673 12.7334308,15.6082456 L10.1135478,18.2281287 C7.80282651,20.5388499 4.04341131,20.538538 1.73304094,18.2281287 C-0.577680312,15.9177973 -0.577680312,12.1579532 1.73304094,9.84762183 L3.17966862,8.40099415 C3.56329435,8.01736842 4.22395712,8.27233918 4.24376218,8.81448343 C4.26902534,9.50539961 4.39292398,10.1995517 4.62153996,10.869883 C4.69896686,11.0968616 4.64364522,11.3479337 4.47405458,11.5175244 L3.96384016,12.0277388 C2.87120858,13.1203704 2.83693957,14.8994737 3.91881092,16.0027875 C5.01136452,17.1169786 6.807154,17.1236062 7.90808967,16.0226706 L10.5279727,13.4031774 C11.627037,12.3041131 11.6224366,10.5276608 10.5279727,9.43319688 C10.3836842,9.28918129 10.2383431,9.17729045 10.1248148,9.09912281 C9.96196097,8.98729111 9.86154146,8.80507024 9.85397661,8.60766082 C9.83853801,8.19569201 9.98450292,7.77116959 10.310039,7.44563353 L11.1308577,6.62477583 C11.3461014,6.40953217 11.6837622,6.38309942 11.9333528,6.55729045 C12.2191885,6.75688091 12.486913,6.98122835 12.7334308,7.22773879 Z M18.2279727,1.73292398 C15.9176023,-0.577485378 12.1581871,-0.577797269 9.84746589,1.73292398 L7.22758285,4.35280702 C7.22290448,4.35748538 7.21783626,4.36255361 7.21354776,4.36723197 C4.9302729,6.66321638 4.89826511,10.4015789 7.22758285,12.7333138 C7.47408606,12.9798131 7.74179779,13.2041478 8.02762183,13.4037232 C8.27721248,13.5779142 8.61491228,13.5514425 8.83011696,13.3362378 L9.65093567,12.5153801 C9.97647173,12.1898441 10.1224366,11.7653216 10.1069981,11.3533528 C10.0994332,11.1559434 9.99901369,10.9737225 9.83615984,10.8618908 C9.72263158,10.7837232 9.57729045,10.6718324 9.43300195,10.5278168 C8.33853801,9.43335283 8.33393762,7.65690059 9.43300195,6.55783626 L12.052885,3.93834308 C13.1538207,2.83740741 14.9495712,2.84403509 16.0421637,3.95822612 C17.1240351,5.06153996 17.0898051,6.84064328 15.9971345,7.93327486 L15.4869201,8.44348928 C15.3173294,8.61307992 15.2620078,8.86415205 15.3394347,9.09113061 C15.5680507,9.76146199 15.6919493,10.455614 15.7172125,11.1465302 C15.7370565,11.6886745 16.3976803,11.9436452 16.781306,11.5600195 L18.2279337,10.1133918 C20.538694,7.80309942 20.538694,4.04325536 18.2279727,1.73292398 L18.2279727,1.73292398 Z" id="path-1"></path>
    </defs>
    <g id="Logos" stroke="none" stroke-width="1" fill="none" fill-rule="evenodd">
        <g id="Downloadable-Assets" transform="translate(-1325.019474, -754.038967)">
            <g id="Stacked-Group-4" transform="translate(972.000000, 742.000000)">
                <g id="Stacked-Group" transform="translate(48.000000, 0.000000)">
                    <g id="Padding-Group-4" transform="translate(280.000000, 0.000000)">
                        <g id="Brands/youtube" transform="translate(25.019474, 12.038967)">
                            <mask id="mask-2" fill="white">
                                <use xlink:href="#path-1"></use>
                            </mask>
                            <g id="Mask"></g>
                            <g id="🎨-color" mask="url(#mask-2)" fill="#205E3B">
                                <g transform="translate(-0.019474, -0.038967)" id="Black">
                                    <rect x="0" y="0" width="20" height="20"></rect>
                                </g>
                            </g>
                        </g>
                    </g>
                </g>
            </g>
        </g>
    </g>
</svg>