<?xml version="1.0" encoding="UTF-8"?>
<svg width="308px" height="407px" viewBox="0 0 308 407" version="1.1" xmlns="http://www.w3.org/2000/svg" xmlns:xlink="http://www.w3.org/1999/xlink">
    <title>3D4D2FD0-0329-49D3-8BCF-00278FC47D9D</title>
    <g id="Logos" stroke="none" stroke-width="1" fill="none" fill-rule="evenodd">
        <g id="Downloadable-Assets" transform="translate(-476.000000, -22.000000)" fill-rule="nonzero">
            <g id="Ashley-Pare_Logo/Color_Vertical" transform="translate(476.000000, 22.000000)">
                <g id="Group">
                    <g transform="translate(0.000000, 87.256046)" fill="#99CFBC" id="Path">
                        <polygon points="65.5928314 37.0812321 0 0 43.5136086 75.2234066"></polygon>
                        <polygon points="65.5928314 37.0812321 0 0 43.5136086 75.2234066"></polygon>
                    </g>
                    <g transform="translate(3.636881, 81.718444)" fill="#99CFBC" id="Path">
                        <polygon points="65.2575161 36.9000956 0 0 86.6403149 0"></polygon>
                        <polygon points="0 0 65.2575161 36.9000956 86.6403149 0"></polygon>
                        <polygon points="0 0 65.2575161 36.9000956 86.6403149 0"></polygon>
                    </g>
                    <g transform="translate(87.697848, 130.547673)" fill="#99CFBC" id="Path">
                        <polygon points="0 0 133.352316 0 66.4182229 37.5728883"></polygon>
                        <polygon points="0 0 66.3924294 37.5470117 133.326522 0"></polygon>
                    </g>
                    <g transform="translate(81.713759, 134.791443)" fill="#99CFBC" id="Path">
                        <polygon points="69.0491584 119.317209 0 0 69.0491584 39.0478571"></polygon>
                        <polygon points="69.0491584 119.317209 69.0491584 39.0478571 0 0"></polygon>
                        <polygon points="69.0491584 119.317209 69.0491584 39.0478571 0 0"></polygon>
                        <polygon points="69.0491584 119.317209 69.0491584 39.0478571 0 0"></polygon>
                    </g>
                    <g transform="translate(157.366050, 135.179593)" fill="#99CFBC" id="Path">
                        <polygon points="0 38.6597074 69.1781258 0 0 118.954936"></polygon>
                        <polygon points="0 38.6597074 0 118.954936 69.1781258 0"></polygon>
                    </g>
                    <g transform="translate(218.806130, 81.718444)" fill="#99CFBC" id="Path">
                        <polygon points="0 0 85.6085755 0 21.3312118 36.6413291 0.0257934846 0"></polygon>
                        <polygon points="0 0 21.3054183 36.6672058 85.6085755 0"></polygon>
                    </g>
                    <g transform="translate(243.438908, 87.307800)" fill="#99CFBC" id="Path">
                        <polygon points="1.46618985e-13 36.796589 64.561092 0 21.872875 74.395354 0 36.796589"></polygon>
                        <polygon points="64.561092 0 0 36.796589 21.872875 74.395354"></polygon>
                    </g>
                    <g transform="translate(157.366050, 270.876718)" fill="#99CFBC" id="Path">
                        <polygon points="0 81.0456517 46.4798593 0 0 0"></polygon>
                        <polygon points="0 81.0456517 46.4798593 0 0 0"></polygon>
                        <polygon points="0 81.0456517 46.4798593 0 0 0"></polygon>
                        <polygon points="0 81.0456517 46.4798593 0 0 0"></polygon>
                    </g>
                    <g transform="translate(103.844569, 270.876718)" fill="#99CFBC" id="Path">
                        <polygon points="46.9183485 81.1232816 46.9183485 0 0 0"></polygon>
                        <polygon points="46.9183485 81.1232816 46.9183485 0 0 0"></polygon>
                        <polygon points="46.9183485 81.1232816 46.9183485 0 0 0"></polygon>
                        <polygon points="46.9183485 81.1232816 46.9183485 0 0 0"></polygon>
                    </g>
                    <g transform="translate(0.825392, 137.094464)" fill="#3F9072" id="Path">
                        <polygon points="0 127.183709 147.693493 127.183709 73.6403986 0"></polygon>
                        <polygon points="0 127.183709 147.693493 127.183709 73.6403986 0"></polygon>
                        <polygon points="0 127.183709 147.693493 127.183709 73.6403986 0"></polygon>
                    </g>
                    <g transform="translate(159.610083, 137.327354)" fill="#3F9072" id="Path">
                        <polygon points="74.0788879 0 147.899841 126.95082 0 126.95082"></polygon>
                        <polygon points="74.0788879 0 0 126.95082 147.899841 126.95082"></polygon>
                        <polygon points="74.0788879 0 0 126.95082 147.899841 126.95082"></polygon>
                        <polygon points="74.0788879 0 0 126.95082 147.899841 126.95082"></polygon>
                    </g>
                    <g transform="translate(88.910142, 0.000000)" fill="#3F9072" id="Path">
                        <polygon points="65.1801357 0 130.12813 112.123502 0 112.123502 65.1543422 0"></polygon>
                        <polygon points="65.1801357 0 0.0257934846 112.123502 130.12813 112.123502"></polygon>
                        <polygon points="65.1801357 0 0.0257934846 112.123502 130.12813 112.123502"></polygon>
                        <polygon points="65.1801357 0 0.0257934846 112.123502 130.12813 112.123502"></polygon>
                    </g>
                </g>
                <path d="M49.1974693,406.995348 C46.93246,406.995348 45.1076144,406.790653 43.7183476,406.390569 C42.3290808,405.985832 41.1598958,405.506661 40.2016226,404.957708 L40.8710383,403.064284 C41.9531076,403.613237 43.1498028,404.0738 44.4611239,404.445972 C45.7678601,404.818143 47.3451135,405.004229 49.1974693,405.004229 C50.3758243,405.004229 51.4762337,404.864665 52.4986974,404.590188 C53.5211611,404.315712 54.3877335,403.892366 55.1075847,403.329457 C55.8274358,402.761895 56.3913956,402.040812 56.8040491,401.170861 C57.2167026,400.296257 57.4276144,399.244872 57.4276144,398.016705 C57.4276144,396.788539 57.2029475,395.737154 56.7581987,394.960245 C56.3134499,394.183337 55.7036397,393.545993 54.9379382,393.043561 C54.1722367,392.541129 53.2964942,392.13174 52.3061258,391.80609 C51.3157574,391.485092 50.2978787,391.140833 49.2433197,390.78727 C48.1566654,390.429055 47.0745962,390.019666 45.9879419,389.549799 C44.9012877,389.079932 43.9292594,388.498414 43.0672721,387.800592 C42.2052847,387.10277 41.5037737,386.246775 40.9627391,385.227955 C40.4217045,384.209135 40.1511872,382.985621 40.1511872,381.562064 C40.1511872,380.464157 40.3254187,379.417424 40.6784667,378.431169 C41.0269297,377.444914 41.5954745,376.584267 42.3749311,375.858532 C43.1543878,375.128145 44.1630964,374.555931 45.3873018,374.132586 C46.6160923,373.713893 48.0924749,373.499894 49.8118645,373.499894 C51.5312542,373.499894 52.9755415,373.695284 54.3327131,374.081413 C55.6898846,374.472193 56.8269743,374.904842 57.7531522,375.393318 L57.1295869,377.091351 C56.1392185,376.607528 54.9929587,376.216748 53.6862226,375.928315 C52.3794864,375.635229 51.1002605,375.491013 49.8577149,375.491013 C47.1800521,375.491013 45.2497507,376.058575 44.0668106,377.189046 C42.8884555,378.319518 42.2969855,379.826813 42.2969855,381.701628 C42.2969855,382.771622 42.480387,383.669486 42.8471902,384.395221 C43.2139933,385.125608 43.7321027,385.753648 44.4015184,386.288645 C45.0709341,386.823641 45.8687309,387.293508 46.7949088,387.698245 C47.7210867,388.102982 48.7573055,388.498414 49.9035653,388.889194 C51.1461109,389.31254 52.3519762,389.745189 53.5165761,390.2011 C54.681176,390.65701 55.7082248,391.210615 56.6023074,391.875872 C57.49639,392.541129 58.2116561,393.355255 58.7572758,394.327553 C59.2983104,395.299852 59.5688277,396.528019 59.5688277,398.016705 C59.5688277,399.505392 59.3212356,400.761472 58.8260514,401.877987 C58.3308671,402.994502 57.6293562,403.934236 56.7215184,404.692535 C55.8136807,405.455487 54.7178563,406.027701 53.4432155,406.418482 C52.1685746,406.80461 50.7472125,407 49.1837142,407 L49.1974693,406.995348 Z M85.414693,392.871432 L67.3312988,392.871432 L67.3312988,406.60922 L65.0846297,406.60922 L65.0846297,373.890675 L67.3312988,373.890675 L67.3312988,390.833791 L85.414693,390.833791 L85.414693,373.890675 L87.6613621,373.890675 L87.6613621,406.60922 L85.414693,406.60922 L85.414693,392.871432 Z M94.924064,373.890675 L97.1707332,373.890675 L97.1707332,404.525058 L113.20003,404.525058 L113.20003,406.613872 L94.924064,406.613872 L94.924064,373.895327 L94.924064,373.890675 Z M119.036785,373.890675 L137.88588,373.890675 L137.88588,375.928315 L121.283454,375.928315 L121.283454,390.833791 L135.675891,390.833791 L135.675891,392.871432 L121.283454,392.871432 L121.283454,404.618101 L138.174738,404.618101 L138.174738,406.60922 L119.036785,406.60922 L119.036785,373.890675 L119.036785,373.890675 Z M155.134797,390.978008 L164.942196,373.890675 L167.335586,373.890675 L156.235207,393.015648 L156.235207,406.60922 L153.988537,406.60922 L153.988537,393.015648 L142.888158,373.890675 L145.281548,373.890675 L155.088947,390.978008 L155.139382,390.978008 L155.134797,390.978008 Z M233.781972,373.890675 L250.742032,406.60922 L248.550383,406.60922 L241.452743,392.871432 L223.887458,392.871432 L216.803573,406.60922 L214.607339,406.60922 L231.72329,373.890675 L233.781972,373.890675 Z M206.890718,373.886022 C208.518407,373.886022 209.967279,374.127934 211.246505,374.616409 C212.521146,375.100233 213.59863,375.774794 214.474373,376.630789 C215.350115,377.486784 216.019531,378.514908 216.48262,379.715162 C216.945709,380.910763 217.174961,381.924931 217.174961,383.381053 C217.174961,384.93487 216.913614,385.874604 216.386334,387.116727 C215.859055,388.363502 215.134619,389.405583 214.208441,390.247621 C213.282263,391.08966 212.168098,391.736308 210.861362,392.187566 C209.554626,392.643476 208.119509,392.866779 206.55601,392.866779 L196.725687,392.866779 L196.725687,406.604568 L194.474432,406.604568 L194.474432,373.886022 L206.890718,373.886022 Z M206.890718,375.932967 L196.725687,375.932967 L196.725687,390.838444 L206.55601,390.838444 C209.169483,390.838444 211.218995,390.140622 212.704548,388.74963 C214.185515,387.358638 214.928292,385.879256 214.928292,383.385705 C214.928292,380.952633 214.249706,379.366251 212.897119,377.993868 C211.539948,376.616832 209.540871,375.932967 206.890718,375.932967 Z M232.764094,375.956228 L224.946602,390.833791 L240.352333,390.833791 L232.764094,375.956228 Z M280.136718,383.306619 C280.136718,385.930429 279.393941,388.037852 277.912974,389.642842 C276.432006,391.247833 274.442099,392.257348 271.957008,392.676041 L280.329289,406.60922 L277.839613,406.60922 L269.609468,392.871432 L258.536598,392.871432 L258.536598,406.60922 L256.285344,406.60922 L256.285344,373.890675 L269.84789,373.890675 C271.475579,373.890675 272.924451,374.11863 274.203677,374.569888 C275.478318,375.025798 276.555802,375.663142 277.431544,376.486572 C278.307287,377.310002 278.976703,378.305561 279.439792,379.47325 C279.902881,380.636287 280.132132,381.915627 280.132132,383.306619 L280.136718,383.306619 Z M277.890048,383.306619 C277.890048,381.008458 277.211463,379.203426 275.858876,377.89152 C274.501705,376.579615 272.502627,375.923663 269.852475,375.923663 L258.541183,375.923663 L258.541183,390.829139 L269.517767,390.829139 C272.131239,390.829139 274.180752,390.163882 275.666304,388.838021 C277.147272,387.512159 277.890048,385.665257 277.890048,383.301967 L277.890048,383.306619 Z M286.546602,373.890675 L307.715728,373.890675 L307.715728,375.928315 L288.793271,375.928315 L288.793271,390.833791 L304.341139,390.833791 L304.341139,392.871432 L288.793271,392.871432 L288.793271,404.618101 L308,404.618101 L308,406.60922 L286.542017,406.60922 L286.542017,373.890675 L286.546602,373.890675 Z M300.38425,363 L301.970674,364.47473 L295.858817,370.671389 L295.08853,369.927046 L300.38425,363 Z M9.28011909,392.871432 L2.19623372,406.60922 L0,406.60922 L17.1159509,373.890675 L19.1746334,373.890675 L36.134693,406.60922 L33.9430443,406.60922 L26.8454038,392.871432 L9.27553405,392.871432 L9.28011909,392.871432 Z M18.1567547,375.956228 L10.3392631,390.833791 L25.7449944,390.833791 L18.1567547,375.956228 Z" id="Combined-Shape" fill="#3F9072"></path>
            </g>
        </g>
    </g>
</svg>