<?xml version="1.0" encoding="UTF-8"?>
<svg width="800px" height="209px" viewBox="0 0 800 209" version="1.1" xmlns="http://www.w3.org/2000/svg" xmlns:xlink="http://www.w3.org/1999/xlink">
    <title>3345F374-F8F5-43F0-A557-99AF4D7D26E9</title>
    <g id="Logos" stroke="none" stroke-width="1" fill="none" fill-rule="evenodd">
        <g id="Downloadable-Assets" transform="translate(-76.000000, -498.000000)" fill="#FFFFFF" fill-rule="nonzero">
            <g id="Ashley-Pare_Logo/White" transform="translate(76.000000, 498.000000)">
                <g id="Group">
                    <g transform="translate(0.000000, 51.808278)" id="Path">
                        <polygon points="38.9570406 22.0169815 0 0 25.8436994 44.6638977"></polygon>
                        <polygon points="38.9570406 22.0169815 0 0 25.8436994 44.6638977"></polygon>
                    </g>
                    <g transform="translate(2.160025, 48.520326)" id="Path">
                        <polygon points="38.7578894 21.9094317 0 0 51.4576089 0"></polygon>
                        <polygon points="0 0 38.7578894 21.9094317 51.4576089 0"></polygon>
                        <polygon points="0 0 38.7578894 21.9094317 51.4576089 0"></polygon>
                    </g>
                    <g transform="translate(52.085701, 77.497317)" id="Path">
                        <polygon points="0 0 79.2009044 0 39.447259 22.3089024"></polygon>
                        <polygon points="0 0 39.4319396 22.3089024 79.1855851 0"></polygon>
                    </g>
                    <g transform="translate(48.531618, 80.017055)" id="Path">
                        <polygon points="41.00983 70.8445931 0 0 41.00983 23.1846651"></polygon>
                        <polygon points="41.00983 70.8445931 41.00983 23.1846651 0 0.0153642579"></polygon>
                        <polygon points="41.00983 70.8445931 41.00983 23.1846651 0 0.0153642579"></polygon>
                        <polygon points="41.00983 70.8445931 41.00983 23.1846651 0 0.0153642579"></polygon>
                    </g>
                    <g transform="translate(93.463195, 80.247519)" id="Path">
                        <polygon points="0 22.9695655 41.0864266 0.0153642579 0 70.6448578 0 22.9695655"></polygon>
                        <polygon points="0 22.9695655 0 70.6448578 41.0864266 0"></polygon>
                    </g>
                    <g transform="translate(129.953824, 48.520326)" id="Path">
                        <polygon points="0 0 50.8448359 0 12.6690808 21.7557892 0.0153193239 0"></polygon>
                        <polygon points="0 0 12.6537615 21.7557892 50.8448359 0"></polygon>
                    </g>
                    <g transform="translate(144.583779, 51.823642)" id="Path">
                        <polygon points="8.70802743e-14 21.8479747 38.3442676 0 12.9907866 44.1722414 0 21.8479747"></polygon>
                        <polygon points="38.3442676 0 0 21.8479747 12.9907866 44.1876057"></polygon>
                    </g>
                    <g transform="translate(93.463195, 160.833052)" id="Path">
                        <polygon points="0 48.1208557 27.6054216 0 0 0"></polygon>
                        <polygon points="0 48.1208557 27.6054216 0 0 0"></polygon>
                        <polygon points="0 48.1208557 27.6054216 0 0 0"></polygon>
                        <polygon points="0 48.1208557 27.6054216 0 0 0"></polygon>
                    </g>
                    <g transform="translate(61.675598, 160.833052)" id="Path">
                        <polygon points="27.8658501 48.1669485 27.8658501 0 0 0"></polygon>
                        <polygon points="27.8658501 48.1669485 27.8658501 0 0 0"></polygon>
                        <polygon points="27.8658501 48.1669485 27.8658501 0 0 0"></polygon>
                        <polygon points="27.8658501 48.1669485 27.8658501 0 0 0"></polygon>
                    </g>
                    <g transform="translate(0.490218, 81.384474)" id="Path">
                        <polygon points="0 75.5153275 87.7184485 75.5153275 43.7366696 0"></polygon>
                        <polygon points="0 75.5153275 87.7184485 75.5153275 43.7366696 0"></polygon>
                        <polygon points="0 75.5153275 87.7184485 75.5153275 43.7366696 0"></polygon>
                    </g>
                    <g transform="translate(94.795976, 81.538117)" id="Path">
                        <polygon points="43.9970982 0 87.8410031 75.3770492 0 75.3770492"></polygon>
                        <polygon points="43.9970982 0 0 75.3616849 87.8410031 75.3616849"></polygon>
                        <polygon points="43.9970982 0 0 75.3616849 87.8410031 75.3616849"></polygon>
                        <polygon points="43.9970982 0 0 75.3616849 87.8410031 75.3616849"></polygon>
                    </g>
                    <g transform="translate(52.805709, 0.000000)" id="Path">
                        <polygon points="38.7119314 0 77.2859889 66.5733294 0 66.5733294 38.6966121 0"></polygon>
                        <polygon points="38.7119314 0 0.0153193239 66.5733294 77.2859889 66.5733294"></polygon>
                        <polygon points="38.7119314 0 0.0153193239 66.5733294 77.2859889 66.5733294"></polygon>
                        <polygon points="38.7119314 0 0.0153193239 66.5733294 77.2859889 66.5733294"></polygon>
                    </g>
                </g>
                <path d="M300.040566,134.99112 C295.66498,134.99112 292.13971,134.600381 289.455899,133.836663 C286.772088,133.064066 284.513435,132.149382 282.662226,131.101491 L283.955415,127.487155 C286.045776,128.535046 288.357574,129.414209 290.890808,130.124643 C293.415184,130.835078 296.462151,131.190295 300.040566,131.190295 C302.316933,131.190295 304.442724,130.923882 306.417938,130.399937 C308.393152,129.875991 310.067213,129.067872 311.457834,127.99334 C312.848456,126.909927 313.937923,125.53346 314.735095,123.87282 C315.532266,122.203298 315.93971,120.196321 315.93971,117.851887 C315.93971,115.507453 315.505694,113.500476 314.64652,112.017444 C313.787346,110.534412 312.609304,109.317793 311.130108,108.358706 C309.650912,107.399619 307.959137,106.618141 306.045925,105.996511 C304.132713,105.383761 302.166357,104.72661 300.12914,104.051697 C298.029922,103.367904 295.939561,102.586426 293.840342,101.689502 C291.741124,100.792578 289.863342,99.6825246 288.198139,98.3504599 C286.532936,97.0183952 285.177745,95.3843958 284.132564,93.4395814 C283.087384,91.4947669 282.564793,89.1592134 282.564793,86.4418015 C282.564793,84.3460197 282.901377,82.3479226 283.583402,80.4652712 C284.256569,78.5826197 285.354894,76.9397399 286.860662,75.5543926 C288.366431,74.1601649 290.315073,73.0678719 292.680015,72.2597526 C295.053815,71.4605138 297.905917,71.052014 301.227466,71.052014 C304.549014,71.052014 307.339114,71.4249921 309.960923,72.1620679 C312.582732,72.9080241 314.779382,73.7339042 316.56859,74.6663495 L315.363975,77.9077069 C313.450763,76.9841421 311.236397,76.2381859 308.712021,75.6875991 C306.187644,75.1281319 303.716412,74.8528386 301.31604,74.8528386 C296.143282,74.8528386 292.414291,75.9362512 290.129066,78.094196 C287.852698,80.2521408 286.710086,83.1294006 286.710086,86.7082144 C286.710086,88.7507136 287.064384,90.4646369 287.772981,91.8499841 C288.481578,93.2442119 289.482471,94.4430701 290.775661,95.4643197 C292.06885,96.4855693 293.610048,97.3824929 295.399256,98.1550904 C297.188463,98.9276879 299.190249,99.6825246 301.404615,100.428481 C303.804987,101.2366 306.134499,102.06248 308.384295,102.932762 C310.63409,103.803045 312.618162,104.859816 314.345367,106.129718 C316.072572,107.399619 317.454336,108.953695 318.508374,110.809705 C319.553554,112.665715 320.076144,115.010149 320.076144,117.851887 C320.076144,120.693625 319.597841,123.091342 318.641236,125.222645 C317.68463,127.353949 316.329438,129.147796 314.575661,130.595306 C312.821883,132.051697 310.70495,133.14399 308.242575,133.889946 C305.780201,134.627022 303.034388,135 300.013993,135 L300.040566,134.99112 Z M370.005657,108.02125 L335.071827,108.02125 L335.071827,134.245163 L330.731671,134.245163 L330.731671,71.7890898 L335.071827,71.7890898 L335.071827,104.131621 L370.005657,104.131621 L370.005657,71.7890898 L374.345813,71.7890898 L374.345813,134.245163 L370.005657,134.245163 L370.005657,108.02125 Z M388.376033,71.7890898 L392.716189,71.7890898 L392.716189,130.26673 L423.681876,130.26673 L423.681876,134.254044 L388.376033,134.254044 L388.376033,71.7979702 L388.376033,71.7890898 Z M434.957425,71.7890898 L471.37045,71.7890898 L471.37045,75.6787187 L439.297581,75.6787187 L439.297581,104.131621 L467.101154,104.131621 L467.101154,108.02125 L439.297581,108.02125 L439.297581,130.444339 L471.92847,130.444339 L471.92847,134.245163 L434.957425,134.245163 L434.957425,71.7890898 L434.957425,71.7890898 Z M504.692222,104.406914 L523.638333,71.7890898 L528.261928,71.7890898 L506.818013,108.296543 L506.818013,134.245163 L502.477856,134.245163 L502.477856,108.296543 L481.033941,71.7890898 L485.657536,71.7890898 L504.603647,104.406914 L504.701079,104.406914 L504.692222,104.406914 Z M656.624265,71.7890898 L689.388016,134.245163 L685.15415,134.245163 L671.442799,108.02125 L637.509862,108.02125 L623.825084,134.245163 L619.58236,134.245163 L652.647265,71.7890898 L656.624265,71.7890898 Z M604.675251,71.7802093 C607.81965,71.7802093 610.618608,72.2419918 613.08984,73.174437 C615.552214,74.0980019 617.633718,75.3856644 619.325493,77.0196638 C621.017268,78.6536632 622.310458,80.6162385 623.205061,82.9073898 C624.099665,85.1896606 624.542538,87.1255947 624.542538,89.9051697 C624.542538,92.8712337 624.037663,94.6650809 623.019055,97.036156 C622.000447,99.4161116 620.600968,101.405328 618.81176,103.012686 C617.022553,104.620044 614.87019,105.854424 612.345813,106.715826 C609.821437,107.586108 607.049051,108.012369 604.028656,108.012369 L585.038258,108.012369 L585.038258,134.236283 L580.689245,134.236283 L580.689245,71.7802093 L604.675251,71.7802093 Z M604.675251,75.6875991 L585.038258,75.6875991 L585.038258,104.140501 L604.028656,104.140501 C609.07741,104.140501 613.036695,102.808436 615.906513,100.153187 C618.767473,97.4979385 620.202382,94.6739613 620.202382,89.9140501 C620.202382,85.2695845 618.891477,82.2413574 616.278526,79.6216302 C613.656718,76.9930225 609.794864,75.6875991 604.675251,75.6875991 Z M654.657908,75.7320013 L639.555936,104.131621 L669.317008,104.131621 L654.657908,75.7320013 Z M746.173204,89.7719632 C746.173204,94.7805265 744.738295,98.8033619 741.877335,101.867111 C739.016375,104.921979 735.172237,106.857913 730.371492,107.657152 L746.545218,134.254044 L741.735616,134.254044 L725.836472,108.03013 L704.445702,108.03013 L704.445702,134.254044 L700.096688,134.254044 L700.096688,71.7979702 L726.29706,71.7979702 C729.441459,71.7979702 732.240417,72.2331113 734.711649,73.0945132 C737.174023,73.9647954 739.255527,75.1814145 740.947302,76.7532509 C742.639077,78.3250872 743.932266,80.2254995 744.82687,82.4544878 C745.721474,84.6834761 746.164347,87.1167142 746.164347,89.7719632 L746.173204,89.7719632 Z M741.833048,89.7719632 C741.833048,85.3850301 740.522144,81.9394228 737.909192,79.4351411 C735.287384,76.9308595 731.42553,75.6787187 726.305917,75.6787187 L704.454559,75.6787187 L704.454559,104.131621 L725.659323,104.131621 C730.708076,104.131621 734.667361,102.861719 737.537179,100.330796 C740.398139,97.7998731 741.833048,94.2743419 741.833048,89.7630828 L741.833048,89.7719632 Z M758.555936,71.7890898 L799.450837,71.7890898 L799.450837,75.6787187 L762.896092,75.6787187 L762.896092,104.131621 L792.931745,104.131621 L792.931745,108.02125 L762.896092,108.02125 L762.896092,130.444339 L800,130.444339 L800,134.245163 L758.547079,134.245163 L758.547079,71.7890898 L758.555936,71.7890898 Z M785.287756,51 L788.352438,53.8150967 L776.545441,65.6438313 L775.057387,64.2229623 L785.287756,51 L785.287756,51 Z M222.927503,108.02125 L209.242724,134.245163 L205,134.245163 L238.064905,71.7890898 L242.041905,71.7890898 L274.805657,134.245163 L270.57179,134.245163 L256.860439,108.02125 L222.918645,108.02125 L222.927503,108.02125 Z M240.075549,75.7320013 L224.973576,104.131621 L254.734648,104.131621 L240.075549,75.7320013 Z" id="Combined-Shape"></path>
            </g>
        </g>
    </g>
</svg>