<?xml version="1.0" encoding="UTF-8"?>
<svg width="308px" height="407px" viewBox="0 0 308 407" version="1.1" xmlns="http://www.w3.org/2000/svg" xmlns:xlink="http://www.w3.org/1999/xlink">
    <title>603DC962-C49E-430B-BD71-CC1EF77421D2</title>
    <g id="Logos" stroke="none" stroke-width="1" fill="none" fill-rule="evenodd">
        <g id="Downloadable-Assets" transform="translate(-76.000000, -22.000000)" fill="#FFFFFF" fill-rule="nonzero">
            <g id="Ashley-Pare_Logo/White_Vertical" transform="translate(76.000000, 22.000000)">
                <g id="Group">
                    <g transform="translate(0.000000, 86.880407)" id="Path">
                        <polygon points="65.3604651 37.0877561 0 0 43.3594592 75.2366412"></polygon>
                        <polygon points="65.3604651 37.0877561 0 0 43.3594592 75.2366412"></polygon>
                    </g>
                    <g transform="translate(3.581395, 81.506361)" id="Path">
                        <polygon points="65.4145752 36.7226463 0 0 86.8488372 0"></polygon>
                        <polygon points="0 0 65.4145752 36.7226463 86.8488372 0"></polygon>
                        <polygon points="0 0 65.4145752 36.7226463 86.8488372 0"></polygon>
                    </g>
                    <g transform="translate(87.744186, 130.768448)" id="Path">
                        <polygon points="0 0 133.406977 0 66.4454478 37.6183206"></polygon>
                        <polygon points="0 0 66.4196437 37.6183206 133.381173 0"></polygon>
                    </g>
                    <g transform="translate(81.476744, 135.246819)" id="Path">
                        <polygon points="68.9418605 119.124682 0 0 68.9418605 38.9848504"></polygon>
                        <polygon points="68.9418605 119.124682 68.9418605 38.9848504 0 0.0258348909"></polygon>
                        <polygon points="68.9418605 119.124682 68.9418605 38.9848504 0 0.0258348909"></polygon>
                        <polygon points="68.9418605 119.124682 68.9418605 38.9848504 0 0.0258348909"></polygon>
                    </g>
                    <g transform="translate(157.581395, 135.246819)" id="Path">
                        <polygon points="0 38.7323618 68.9418605 0.0259079343 0 119.124682 0 38.7323618"></polygon>
                        <polygon points="0 38.7323618 0 119.124682 68.9418605 0"></polygon>
                    </g>
                    <g transform="translate(218.465116, 81.506361)" id="Path">
                        <polygon points="0 0 85.9534884 0 21.4171542 36.7226463 0.0258974054 0"></polygon>
                        <polygon points="0 0 21.3912568 36.7226463 85.9534884 0"></polygon>
                    </g>
                    <g transform="translate(243.534884, 86.880407)" id="Path">
                        <polygon points="1.46401023e-13 36.7569037 64.4651163 0 21.840359 74.3151182 0 36.7569037"></polygon>
                        <polygon points="64.4651163 0 0 36.7569037 21.840359 74.3409669"></polygon>
                    </g>
                    <g transform="translate(157.581395, 271.389313)" id="Path">
                        <polygon points="0 80.610687 46.5581395 0 0 0"></polygon>
                        <polygon points="0 80.610687 46.5581395 0 0 0"></polygon>
                        <polygon points="0 80.610687 46.5581395 0 0 0"></polygon>
                        <polygon points="0 80.610687 46.5581395 0 0 0"></polygon>
                    </g>
                    <g transform="translate(103.860465, 270.493639)" id="Path">
                        <polygon points="46.5581395 81.5063613 46.5581395 0 0 0"></polygon>
                        <polygon points="46.5581395 81.5063613 46.5581395 0 0 0"></polygon>
                        <polygon points="46.5581395 81.5063613 46.5581395 0 0 0"></polygon>
                        <polygon points="46.5581395 81.5063613 46.5581395 0 0 0"></polygon>
                    </g>
                    <g transform="translate(0.895349, 137.038168)">
                        <polygon id="Path" points="0 127.185751 147.732558 127.185751 73.6598766 0"></polygon>
                        <polygon id="Path" points="0 127.185751 147.732558 127.185751 73.6598766 0"></polygon>
                        <g id="Group-5">
                            <polygon id="Path" points="0 127.185751 147.732558 127.185751 73.6598766 0"></polygon>
                            <polygon id="Path" points="232.471845 0 158.476744 127.159826 306.209302 127.159826"></polygon>
                        </g>
                    </g>
                    <g transform="translate(159.372093, 137.038168)" id="Path">
                        <polygon points="73.9951006 0 147.732558 127.185751 0 127.185751"></polygon>
                        <polygon points="73.9951006 0 0 127.159826 147.732558 127.159826"></polygon>
                        <polygon points="73.9951006 0 0 127.159826 147.732558 127.159826"></polygon>
                    </g>
                    <g transform="translate(88.639535, 0.000000)" id="Path">
                        <polygon points="65.0285915 0 129.825581 111.959288 0 111.959288 65.002858 0"></polygon>
                        <polygon points="65.0285915 0 0.0257335146 111.959288 129.825581 111.959288"></polygon>
                        <polygon points="65.0285915 0 0.0257335146 111.959288 129.825581 111.959288"></polygon>
                        <polygon points="65.0285915 0 0.0257335146 111.959288 129.825581 111.959288"></polygon>
                    </g>
                </g>
                <path d="M49.1974693,406.995348 C46.93246,406.995348 45.1076144,406.790676 43.7183476,406.390633 C42.3290808,405.985939 41.1598958,405.506819 40.2016226,404.957924 L40.8710383,403.0647 C41.9531076,403.613596 43.1498028,404.074109 44.4611239,404.446242 C45.7678601,404.818374 47.3451135,405.00444 49.1974693,405.00444 C50.3758243,405.00444 51.4762337,404.864891 52.4986974,404.590443 C53.5211611,404.315995 54.3877335,403.892695 55.1075847,403.329845 C55.8274358,402.762343 56.3913956,402.041336 56.8040491,401.171477 C57.2167026,400.296966 57.4276144,399.245692 57.4276144,398.017655 C57.4276144,396.789618 57.2029475,395.738344 56.7581987,394.961518 C56.3134499,394.184692 55.7036397,393.547415 54.9379382,393.045036 C54.1722367,392.542658 53.2964942,392.133312 52.3061258,391.807696 C51.3157574,391.486732 50.2978787,391.14251 49.2433197,390.788984 C48.1566654,390.430807 47.0745962,390.021461 45.9879419,389.551644 C44.9012877,389.081827 43.9292594,388.50037 43.0672721,387.802622 C42.2052847,387.104874 41.5037737,386.248969 40.9627391,385.230257 C40.4217045,384.211545 40.1511872,382.988159 40.1511872,381.564753 C40.1511872,380.466963 40.3254187,379.42034 40.6784667,378.43419 C41.0269297,377.448039 41.5954745,376.587483 42.3749311,375.861825 C43.1543878,375.131515 44.1630964,374.559361 45.3873018,374.136061 C46.6160923,373.717412 48.0924749,373.503436 49.8118645,373.503436 C51.5312542,373.503436 52.9755415,373.698805 54.3327131,374.084893 C55.6898846,374.475632 56.8269743,374.908236 57.7531522,375.396659 L57.1295869,377.094513 C56.1392185,376.610741 54.9929587,376.220002 53.6862226,375.9316 C52.3794864,375.638545 51.1002605,375.494344 49.8577149,375.494344 C47.1800521,375.494344 45.2497507,376.061846 44.0668106,377.192198 C42.8884555,378.32255 42.2969855,379.829686 42.2969855,381.704303 C42.2969855,382.774183 42.480387,383.671953 42.8471902,384.397611 C43.2139933,385.12792 43.7321027,385.755894 44.4015184,386.290834 C45.0709341,386.825774 45.8687309,387.295592 46.7949088,387.700285 C47.7210867,388.104979 48.7573055,388.50037 49.9035653,388.891109 C51.1461109,389.31441 52.3519762,389.747013 53.5165761,390.202876 C54.681176,390.658738 55.7082248,391.212285 56.6023074,391.877471 C57.49639,392.542658 58.2116561,393.356697 58.7572758,394.328893 C59.2983104,395.301089 59.5688277,396.529126 59.5688277,398.017655 C59.5688277,399.506185 59.3212356,400.762131 58.8260514,401.878528 C58.3308671,402.994925 57.6293562,403.93456 56.7215184,404.692779 C55.8136807,405.455651 54.7178563,406.027804 53.4432155,406.418543 C52.1685746,406.804631 50.7472125,407 49.1837142,407 L49.1974693,406.995348 Z M85.414693,392.868274 L67.3312988,392.868274 L67.3312988,406.604609 L65.0846297,406.604609 L65.0846297,373.889523 L67.3312988,373.889523 L67.3312988,390.830849 L85.414693,390.830849 L85.414693,373.889523 L87.6613621,373.889523 L87.6613621,406.604609 L85.414693,406.604609 L85.414693,392.868274 Z M94.924064,373.889523 L97.1707332,373.889523 L97.1707332,404.520668 L113.20003,404.520668 L113.20003,406.609261 L94.924064,406.609261 L94.924064,373.894175 L94.924064,373.889523 Z M119.036785,373.889523 L137.88588,373.889523 L137.88588,375.926948 L121.283454,375.926948 L121.283454,390.830849 L135.675891,390.830849 L135.675891,392.868274 L121.283454,392.868274 L121.283454,404.613701 L138.174738,404.613701 L138.174738,406.604609 L119.036785,406.604609 L119.036785,373.889523 L119.036785,373.889523 Z M155.134797,390.97505 L164.942196,373.889523 L167.335586,373.889523 L156.235207,393.012475 L156.235207,406.604609 L153.988537,406.604609 L153.988537,393.012475 L142.888158,373.889523 L145.281548,373.889523 L155.088947,390.97505 L155.139382,390.97505 L155.134797,390.97505 Z M233.781972,373.889523 L250.742032,406.604609 L248.550383,406.604609 L241.452743,392.868274 L223.887458,392.868274 L216.803573,406.604609 L214.607339,406.604609 L231.72329,373.889523 L233.781972,373.889523 Z M206.890718,373.884872 C208.518407,373.884872 209.967279,374.126758 211.246505,374.615181 C212.521146,375.098953 213.59863,375.773443 214.474373,376.629348 C215.350115,377.485252 216.019531,378.513268 216.48262,379.713395 C216.945709,380.90887 217.174961,381.922931 217.174961,383.378898 C217.174961,384.932551 216.913614,385.872185 216.386334,387.114177 C215.859055,388.36082 215.134619,389.402791 214.208441,390.24474 C213.282263,391.08669 212.168098,391.73327 210.861362,392.18448 C209.554626,392.640343 208.119509,392.863622 206.55601,392.863622 L196.725687,392.863622 L196.725687,406.599958 L194.474432,406.599958 L194.474432,373.884872 L206.890718,373.884872 Z M206.890718,375.9316 L196.725687,375.9316 L196.725687,390.835501 L206.55601,390.835501 C209.169483,390.835501 211.218995,390.137752 212.704548,388.746908 C214.185515,387.356063 214.928292,385.876837 214.928292,383.38355 C214.928292,380.950735 214.249706,379.364521 212.897119,377.992282 C211.539948,376.615393 209.540871,375.9316 206.890718,375.9316 Z M232.764094,375.954858 L224.946602,390.830849 L240.352333,390.830849 L232.764094,375.954858 Z M280.136718,383.309124 C280.136718,385.932657 279.393941,388.039856 277.912974,389.644677 C276.432006,391.244846 274.442099,392.258907 271.957008,392.677556 L280.329289,406.609261 L277.839613,406.609261 L269.609468,392.872925 L258.536598,392.872925 L258.536598,406.609261 L256.285344,406.609261 L256.285344,373.894175 L269.84789,373.894175 C271.475579,373.894175 272.924451,374.122106 274.203677,374.573316 C275.478318,375.029179 276.555802,375.666455 277.431544,376.489798 C278.307287,377.313141 278.976703,378.308595 279.439792,379.47616 C279.902881,380.643726 280.132132,381.918279 280.132132,383.309124 L280.136718,383.309124 Z M277.890048,383.309124 C277.890048,381.011206 277.211463,379.206364 275.858876,377.894598 C274.501705,376.582831 272.502627,375.926948 269.852475,375.926948 L258.541183,375.926948 L258.541183,390.830849 L269.517767,390.830849 C272.131239,390.830849 274.180752,390.165662 275.666304,388.839941 C277.147272,387.514219 277.890048,385.667512 277.890048,383.304472 L277.890048,383.309124 Z M286.546602,373.889523 L307.715728,373.889523 L307.715728,375.926948 L288.793271,375.926948 L288.793271,390.830849 L304.341139,390.830849 L304.341139,392.868274 L288.793271,392.868274 L288.793271,404.613701 L308,404.613701 L308,406.604609 L286.542017,406.604609 L286.542017,373.889523 L286.546602,373.889523 Z M300.38425,363 L301.970674,364.474574 L295.858817,370.670578 L295.08853,369.926314 L300.38425,363 L300.38425,363 Z M9.28011909,392.868274 L2.19623372,406.604609 L0,406.604609 L17.1159509,373.889523 L19.1746334,373.889523 L36.134693,406.604609 L33.9430443,406.604609 L26.8454038,392.868274 L9.27553405,392.868274 L9.28011909,392.868274 Z M18.1567547,375.954858 L10.3392631,390.830849 L25.7449944,390.830849 L18.1567547,375.954858 Z" id="Combined-Shape"></path>
            </g>
        </g>
    </g>
</svg>